<svg width="44" height="44" viewBox="0 0 44 44" fill="none" xmlns="http://www.w3.org/2000/svg">
<path d="M22.8801 17.0172L27.6541 18.2882M21.8581 20.8132L24.2441 21.4492M21.9771 27.9662L22.9311 28.2212C25.6311 28.9412 26.9811 29.3002 28.0451 28.6892C29.1081 28.0792 29.4701 26.7362 30.1931 24.0522L31.2161 20.2552C31.9401 17.5702 32.3011 16.2282 31.6871 15.1702C31.0731 14.1122 29.7241 13.7532 27.0231 13.0342L26.0691 12.7792C23.3691 12.0592 22.0191 11.7002 20.9561 12.3112C19.8921 12.9212 19.5301 14.2642 18.8061 16.9482L17.7841 20.7452C17.0601 23.4302 16.6981 24.7722 17.3131 25.8302C17.9271 26.8872 19.2771 27.2472 21.9771 27.9662Z" stroke="#3C3C3C" stroke-width="1.5" stroke-linecap="round" stroke-linejoin="round"/>
<path d="M22 30.9462L21.048 31.2062C18.354 31.9392 17.008 32.3062 15.946 31.6832C14.886 31.0612 14.524 29.6932 13.803 26.9552L12.782 23.0832C12.06 20.3462 11.699 18.9772 12.312 17.8992C12.842 16.9662 14 17.0002 15.5 17.0002" stroke="#3C3C3C" stroke-width="1.5" stroke-linecap="round" stroke-linejoin="round"/>
</svg>
