<svg width="24" height="24" viewBox="0 0 24 24" fill="none" xmlns="http://www.w3.org/2000/svg">
<path fill-rule="evenodd" clip-rule="evenodd" d="M8 2H7.934C7.048 2 6.284 2 5.672 2.082C5.017 2.17 4.388 2.369 3.879 2.879C3.369 3.389 3.17 4.017 3.082 4.672C3 5.284 3 6.048 3 6.934V7.95C3 8.21522 3.10536 8.46957 3.29289 8.65711C3.48043 8.84464 3.73478 8.95 4 8.95C4.26522 8.95 4.51957 8.84464 4.70711 8.65711C4.89464 8.46957 5 8.21522 5 7.95V7C5 6.029 5.002 5.401 5.064 4.939C5.123 4.505 5.217 4.369 5.293 4.293C5.369 4.217 5.505 4.123 5.939 4.064C6.4 4.002 7.029 4 8 4H16C16.971 4 17.599 4.002 18.061 4.064C18.495 4.123 18.631 4.217 18.707 4.293C18.783 4.369 18.877 4.505 18.936 4.939C18.998 5.4 19 6.029 19 7V7.95C19 8.21522 19.1054 8.46957 19.2929 8.65711C19.4804 8.84464 19.7348 8.95 20 8.95C20.2652 8.95 20.5196 8.84464 20.7071 8.65711C20.8946 8.46957 21 8.21522 21 7.95V6.934C21 6.048 21 5.284 20.918 4.672C20.83 4.017 20.631 3.388 20.121 2.879C19.611 2.369 18.983 2.17 18.328 2.082C17.716 2 16.952 2 16.066 2H8Z" fill="#3C3C3C"/>
<path opacity="0.5" d="M13 4H11V20H13V4Z" fill="#3C3C3C"/>
<path fill-rule="evenodd" clip-rule="evenodd" d="M6 21C6 20.7348 6.10536 20.4804 6.29289 20.2929C6.48043 20.1054 6.73478 20 7 20H17C17.2652 20 17.5196 20.1054 17.7071 20.2929C17.8946 20.4804 18 20.7348 18 21C18 21.2652 17.8946 21.5196 17.7071 21.7071C17.5196 21.8946 17.2652 22 17 22H7C6.73478 22 6.48043 21.8946 6.29289 21.7071C6.10536 21.5196 6 21.2652 6 21Z" fill="#3C3C3C"/>
</svg>
